<?xml version="1.0" encoding="UTF-8" standalone="no"?>
<!DOCTYPE svg PUBLIC "-//W3C//DTD SVG 1.1//EN"
 "http://www.w3.org/Graphics/SVG/1.1/DTD/svg11.dtd">
<!-- Generated by graphviz version 3.0.0 (20220226.1711)
 -->
<!-- Title: dependencies Pages: 1 -->
<svg width="1457pt" height="247pt"
 viewBox="0.00 0.00 1457.00 246.80" xmlns="http://www.w3.org/2000/svg" xmlns:xlink="http://www.w3.org/1999/xlink">
<g id="graph0" class="graph" transform="scale(1 1) rotate(0) translate(4 242.8)">
<title>dependencies</title>
<polygon fill="white" stroke="transparent" points="-4,4 -4,-242.8 1453,-242.8 1453,4 -4,4"/>
<text text-anchor="middle" x="724.5" y="-8.2" font-family="sans-serif" font-size="14.00">dependencies</text>
<g id="clust1" class="cluster">
<title>cluster_AppModule</title>
<polygon fill="none" stroke="black" stroke-dasharray="1,5" points="8,-32.8 8,-230.8 1441,-230.8 1441,-32.8 8,-32.8"/>
</g>
<g id="clust2" class="cluster">
<title>cluster_AppModule_declarations</title>
<polygon fill="none" stroke="black" points="346,-40.8 346,-92.8 1433,-92.8 1433,-40.8 346,-40.8"/>
</g>
<g id="clust13" class="cluster">
<title>cluster_AppModule_providers</title>
<polygon fill="none" stroke="black" points="168,-40.8 168,-92.8 338,-92.8 338,-40.8 168,-40.8"/>
</g>
<g id="clust10" class="cluster">
<title>cluster_AppModule_imports</title>
<polygon fill="none" stroke="black" points="16,-40.8 16,-92.8 160,-92.8 160,-40.8 16,-40.8"/>
</g>
<g id="clust12" class="cluster">
<title>cluster_AppModule_bootstrap</title>
<polygon fill="none" stroke="black" points="618,-170.8 618,-222.8 742,-222.8 742,-170.8 618,-170.8"/>
</g>
<!-- AppComponent -->
<g id="node1" class="node">
<title>AppComponent</title>
<polygon fill="#ffffb3" stroke="black" points="1424.94,-84.8 1319.06,-84.8 1319.06,-48.8 1424.94,-48.8 1424.94,-84.8"/>
<text text-anchor="middle" x="1372" y="-62.6" font-family="Times,serif" font-size="14.00">AppComponent</text>
</g>
<!-- AppModule -->
<g id="node8" class="node">
<title>AppModule</title>
<polygon fill="#8dd3c7" stroke="black" points="721.66,-149.8 718.66,-153.8 697.66,-153.8 694.66,-149.8 638.34,-149.8 638.34,-113.8 721.66,-113.8 721.66,-149.8"/>
<text text-anchor="middle" x="680" y="-127.6" font-family="Times,serif" font-size="14.00">AppModule</text>
</g>
<!-- AppComponent&#45;&gt;AppModule -->
<g id="edge1" class="edge">
<title>AppComponent&#45;&gt;AppModule</title>
<path fill="none" stroke="black" d="M1372,-84.81C1372,-107.29 1372,-142.8 1372,-142.8 1372,-142.8 731.73,-142.8 731.73,-142.8"/>
<polygon fill="black" stroke="black" points="731.73,-139.3 721.73,-142.8 731.73,-146.3 731.73,-139.3"/>
</g>
<!-- HighlightSkillComponent -->
<g id="node2" class="node">
<title>HighlightSkillComponent</title>
<polygon fill="#ffffb3" stroke="black" points="1301.96,-84.8 1140.04,-84.8 1140.04,-48.8 1301.96,-48.8 1301.96,-84.8"/>
<text text-anchor="middle" x="1221" y="-62.6" font-family="Times,serif" font-size="14.00">HighlightSkillComponent</text>
</g>
<!-- HighlightSkillComponent&#45;&gt;AppModule -->
<g id="edge2" class="edge">
<title>HighlightSkillComponent&#45;&gt;AppModule</title>
<path fill="none" stroke="black" d="M1221,-84.93C1221,-105.37 1221,-135.8 1221,-135.8 1221,-135.8 732,-135.8 732,-135.8"/>
<polygon fill="black" stroke="black" points="732,-132.3 722,-135.8 732,-139.3 732,-132.3"/>
</g>
<!-- RoadmapItemComponent -->
<g id="node3" class="node">
<title>RoadmapItemComponent</title>
<polygon fill="#ffffb3" stroke="black" points="1122.14,-84.8 961.86,-84.8 961.86,-48.8 1122.14,-48.8 1122.14,-84.8"/>
<text text-anchor="middle" x="1042" y="-62.6" font-family="Times,serif" font-size="14.00">RoadmapItemComponent</text>
</g>
<!-- RoadmapItemComponent&#45;&gt;AppModule -->
<g id="edge3" class="edge">
<title>RoadmapItemComponent&#45;&gt;AppModule</title>
<path fill="none" stroke="black" d="M1042,-85.07C1042,-103.36 1042,-128.8 1042,-128.8 1042,-128.8 731.88,-128.8 731.88,-128.8"/>
<polygon fill="black" stroke="black" points="731.88,-125.3 721.88,-128.8 731.88,-132.3 731.88,-125.3"/>
</g>
<!-- RoadmapItemListComponent -->
<g id="node4" class="node">
<title>RoadmapItemListComponent</title>
<polygon fill="#ffffb3" stroke="black" points="943.42,-84.8 760.58,-84.8 760.58,-48.8 943.42,-48.8 943.42,-84.8"/>
<text text-anchor="middle" x="852" y="-62.6" font-family="Times,serif" font-size="14.00">RoadmapItemListComponent</text>
</g>
<!-- RoadmapItemListComponent&#45;&gt;AppModule -->
<g id="edge4" class="edge">
<title>RoadmapItemListComponent&#45;&gt;AppModule</title>
<path fill="none" stroke="black" d="M852,-84.81C852,-100.85 852,-121.8 852,-121.8 852,-121.8 732.08,-121.8 732.08,-121.8"/>
<polygon fill="black" stroke="black" points="732.08,-118.3 722.08,-121.8 732.08,-125.3 732.08,-118.3"/>
</g>
<!-- StatListComponent -->
<g id="node5" class="node">
<title>StatListComponent</title>
<polygon fill="#ffffb3" stroke="black" points="742.39,-84.8 617.61,-84.8 617.61,-48.8 742.39,-48.8 742.39,-84.8"/>
<text text-anchor="middle" x="680" y="-62.6" font-family="Times,serif" font-size="14.00">StatListComponent</text>
</g>
<!-- StatListComponent&#45;&gt;AppModule -->
<g id="edge5" class="edge">
<title>StatListComponent&#45;&gt;AppModule</title>
<path fill="none" stroke="black" d="M680,-84.91C680,-84.91 680,-103.79 680,-103.79"/>
<polygon fill="black" stroke="black" points="676.5,-103.79 680,-113.79 683.5,-103.79 676.5,-103.79"/>
</g>
<!-- TabComponent -->
<g id="node6" class="node">
<title>TabComponent</title>
<polygon fill="#ffffb3" stroke="black" points="599.6,-84.8 496.4,-84.8 496.4,-48.8 599.6,-48.8 599.6,-84.8"/>
<text text-anchor="middle" x="548" y="-62.6" font-family="Times,serif" font-size="14.00">TabComponent</text>
</g>
<!-- TabComponent&#45;&gt;AppModule -->
<g id="edge6" class="edge">
<title>TabComponent&#45;&gt;AppModule</title>
<path fill="none" stroke="black" d="M548,-84.81C548,-100.85 548,-121.8 548,-121.8 548,-121.8 628.23,-121.8 628.23,-121.8"/>
<polygon fill="black" stroke="black" points="628.23,-125.3 638.23,-121.8 628.23,-118.3 628.23,-125.3"/>
</g>
<!-- TabListComponent -->
<g id="node7" class="node">
<title>TabListComponent</title>
<polygon fill="#ffffb3" stroke="black" points="478.38,-84.8 353.62,-84.8 353.62,-48.8 478.38,-48.8 478.38,-84.8"/>
<text text-anchor="middle" x="416" y="-62.6" font-family="Times,serif" font-size="14.00">TabListComponent</text>
</g>
<!-- TabListComponent&#45;&gt;AppModule -->
<g id="edge7" class="edge">
<title>TabListComponent&#45;&gt;AppModule</title>
<path fill="none" stroke="black" d="M416,-85.07C416,-103.36 416,-128.8 416,-128.8 416,-128.8 628.17,-128.8 628.17,-128.8"/>
<polygon fill="black" stroke="black" points="628.17,-132.3 638.17,-128.8 628.17,-125.3 628.17,-132.3"/>
</g>
<!-- AppComponent  -->
<g id="node10" class="node">
<title>AppComponent </title>
<polygon fill="#80b1d3" stroke="black" points="734.44,-214.8 625.56,-214.8 625.56,-178.8 734.44,-178.8 734.44,-214.8"/>
<text text-anchor="middle" x="680" y="-192.6" font-family="Times,serif" font-size="14.00">AppComponent </text>
</g>
<!-- AppModule&#45;&gt;AppComponent  -->
<g id="edge9" class="edge">
<title>AppModule&#45;&gt;AppComponent </title>
<path fill="none" stroke="black" stroke-dasharray="1,5" d="M680,-149.91C680,-149.91 680,-168.79 680,-168.79"/>
<polygon fill="black" stroke="black" points="676.5,-168.79 680,-178.79 683.5,-168.79 676.5,-168.79"/>
</g>
<!-- AppRoutingModule -->
<g id="node9" class="node">
<title>AppRoutingModule</title>
<polygon fill="#8dd3c7" stroke="black" points="152.28,-84.8 149.28,-88.8 128.28,-88.8 125.28,-84.8 23.72,-84.8 23.72,-48.8 152.28,-48.8 152.28,-84.8"/>
<text text-anchor="middle" x="88" y="-62.6" font-family="Times,serif" font-size="14.00">AppRoutingModule</text>
</g>
<!-- AppRoutingModule&#45;&gt;AppModule -->
<g id="edge8" class="edge">
<title>AppRoutingModule&#45;&gt;AppModule</title>
<path fill="none" stroke="black" d="M88,-84.81C88,-107.29 88,-142.8 88,-142.8 88,-142.8 627.9,-142.8 627.9,-142.8"/>
<polygon fill="black" stroke="black" points="627.9,-146.3 637.9,-142.8 627.9,-139.3 627.9,-146.3"/>
</g>
<!-- RoadmapService -->
<g id="node11" class="node">
<title>RoadmapService</title>
<ellipse fill="#fdb462" stroke="black" cx="253" cy="-66.8" rx="77.01" ry="18"/>
<text text-anchor="middle" x="253" y="-62.6" font-family="Times,serif" font-size="14.00">RoadmapService</text>
</g>
<!-- RoadmapService&#45;&gt;AppModule -->
<g id="edge10" class="edge">
<title>RoadmapService&#45;&gt;AppModule</title>
<path fill="none" stroke="black" d="M253,-84.93C253,-105.37 253,-135.8 253,-135.8 253,-135.8 628.28,-135.8 628.28,-135.8"/>
<polygon fill="black" stroke="black" points="628.28,-139.3 638.28,-135.8 628.28,-132.3 628.28,-139.3"/>
</g>
</g>
</svg>
